<?xml version="1.0" encoding="iso-8859-1"?>
<!-- Generator: Adobe Illustrator 23.0.2, SVG Export Plug-In . SVG Version: 6.00 Build 0)  -->
<svg version="1.1" id="Livello_1" xmlns="http://www.w3.org/2000/svg" xmlns:xlink="http://www.w3.org/1999/xlink" x="0px" y="0px"
	 viewBox="0 0 427.463 117.204" style="enable-background:new 0 0 427.463 117.204;" xml:space="preserve">
<g>
	<g>
		<g>
			<g>
				<path style="fill:#FFFFFF;" d="M157.349,87.414v5.031h6.692v1.574h-6.692v6.135h-1.638V85.838h9.107v1.574h-7.469V87.414z"/>
				<path style="fill:#FFFFFF;" d="M193.583,92.996c0,4.029-3.316,7.239-7.49,7.239c-4.195,0-7.511-3.21-7.511-7.239
					c0-4.047,3.316-7.197,7.511-7.197C190.267,85.798,193.583,88.967,193.583,92.996z M180.239,92.996
					c0,3.15,2.66,5.663,5.852,5.663s5.812-2.515,5.812-5.663c0-3.148-2.62-5.644-5.812-5.644
					C182.901,87.351,180.239,89.846,180.239,92.996z"/>
				<path style="fill:#FFFFFF;" d="M220.979,94.265c0,3.722-2.252,5.97-5.996,5.97c-3.765,0-6.038-2.25-6.038-5.97v-8.427h1.638
					v8.425c0,2.78,1.678,4.396,4.4,4.396c2.722,0,4.358-1.616,4.358-4.396v-8.425h1.638
					C220.979,85.838,220.979,94.265,220.979,94.265z"/>
				<path style="fill:#FFFFFF;" d="M247.924,100.153l-8.595-11.491v11.491h-1.638V85.838h1.699l8.595,11.512V85.838h1.617v14.313
					h-1.678V100.153z"/>
				<path style="fill:#FFFFFF;" d="M272.454,85.838c4.176,0,7.369,3.087,7.369,7.158c0,4.07-3.213,7.158-7.429,7.158h-5.731V85.838
					H272.454z M268.301,98.598h4.174c3.192,0,5.691-2.392,5.691-5.582c0-3.21-2.538-5.603-5.752-5.603h-4.114V98.598z"/>
				<path style="fill:#FFFFFF;" d="M296.409,96.534l-1.596,3.62h-1.74l6.427-14.313h1.699l6.406,14.313h-1.782l-1.596-3.62H296.409z
					 M300.299,87.7l-3.192,7.26h6.427L300.299,87.7z"/>
				<path style="fill:#FFFFFF;" d="M325.585,87.414v12.739h-1.638V87.414h-4.665v-1.576h10.989v1.574h-4.686V87.414z"/>
				<path style="fill:#FFFFFF;" d="M345.345,100.153V85.838h1.638v14.313h-1.638V100.153z"/>
				<path style="fill:#FFFFFF;" d="M377.668,92.996c0,4.029-3.316,7.239-7.49,7.239c-4.195,0-7.511-3.21-7.511-7.239
					c0-4.047,3.316-7.197,7.511-7.197C374.353,85.798,377.668,88.967,377.668,92.996z M364.326,92.996
					c0,3.15,2.66,5.663,5.852,5.663c3.192,0,5.812-2.515,5.812-5.663c0-3.148-2.62-5.644-5.812-5.644
					C366.986,87.351,364.326,89.846,364.326,92.996z"/>
				<path style="fill:#FFFFFF;" d="M403.591,100.153l-8.595-11.491v11.491h-1.638V85.838h1.699l8.595,11.512V85.838h1.617v14.313
					h-1.678V100.153z"/>
			</g>
		</g>
		<g>
			<g>
				<path style="fill:#FFFFFF;" d="M121.654,40.331c-9.899,0-17.926,8.018-17.926,17.91s8.025,17.91,17.926,17.91
					c4.254,0,8.156-1.482,11.23-3.956V99.83h6.694V58.241C139.58,48.351,131.553,40.331,121.654,40.331z M121.654,69.404
					c-6.172,0-11.173-4.999-11.173-11.163s5.004-11.163,11.173-11.163c6.172,0,11.173,4.999,11.173,11.163
					S127.826,69.404,121.654,69.404z"/>
				<path style="fill:#FFFFFF;" d="M206.392,40.331c-9.899,0-17.926,8.018-17.926,17.91s8.025,17.91,17.926,17.91
					c4.254,0,8.156-1.482,11.23-3.956v3.956h6.694v-17.91C224.316,48.351,216.291,40.331,206.392,40.331z M206.392,69.404
					c-6.172,0-11.173-4.999-11.173-11.163s5.004-11.163,11.173-11.163c6.172,0,11.173,4.999,11.173,11.163
					S212.562,69.404,206.392,69.404z"/>
				<path style="fill:#FFFFFF;" d="M260.017,22.446v21.84c-3.073-2.471-6.978-3.956-11.23-3.956c-9.899,0-17.926,8.018-17.926,17.91
					s8.025,17.91,17.926,17.91c9.899,0,17.926-8.018,17.926-17.91V22.446H260.017z M248.787,69.404
					c-6.172,0-11.173-4.999-11.173-11.163s5.004-11.163,11.173-11.163c6.172,0,11.173,4.999,11.173,11.163
					S254.959,69.404,248.787,69.404z"/>
				<path style="fill:#FFFFFF;" d="M175.195,40.331v3.956v13.954c0,6.166-5.06,11.163-11.23,11.163
					c-6.172,0-11.23-4.999-11.23-11.163V44.286v-3.956h-6.694v17.91c0,5.642,2.614,10.671,6.694,13.954
					c3.073,2.471,6.978,3.956,11.23,3.956s8.156-1.482,11.23-3.956c4.08-3.283,6.694-8.312,6.694-13.954v-17.91H175.195z"/>
				<path style="fill:#FFFFFF;" d="M312.992,40.331c-9.899,0-17.926,8.018-17.926,17.91s8.025,17.91,17.926,17.91
					c4.254,0,8.156-1.482,11.23-3.956v3.956h6.694v-17.91C330.917,48.351,322.89,40.331,312.992,40.331z M312.992,69.404
					c-6.172,0-11.173-4.999-11.173-11.163s5.004-11.163,11.173-11.163c6.17,0,11.173,4.999,11.173,11.163
					S319.163,69.404,312.992,69.404z"/>
				<path style="fill:#FFFFFF;" d="M395.049,76.472c-5.702,0-10.373-2.064-15.076-6.68l3.531-4.993
					c1.653,2.551,4.492,6.041,11.493,6.041c3.464,0,8.599-2.359,8.599-5.619c0-3.544-5.146-4.242-9.015-4.459
					c-5.478-0.401-14.685-2.254-14.669-10.138c0.015-7.22,8.562-10.466,14.627-10.466l0.278,0.002
					c4.575,0.075,8.589,1.645,12.253,4.797l-3.725,4.269c-2.775-2.382-5.336-3.409-8.438-3.409c-4.649,0-8.7,1.96-8.7,4.663
					c0,1.874,2.304,4.052,8.867,4.459c6.865,0.432,14.746,2.031,14.746,10.639C409.817,71.178,402.641,76.472,395.049,76.472z"/>
				<path style="fill:#FFFFFF;" d="M373.335,58.241c-0.01-9.882-8.031-17.891-17.924-17.891c-4.86,0-8.614,1.935-11.18,5.07v-5.07
					h-6.694v35.817h6.694v-17.91h0.004c0-6.166,5.004-11.163,11.173-11.163c6.17,0,11.23,4.999,11.23,11.163v13.954v3.937h6.694
					V58.257L373.335,58.241L373.335,58.241z"/>
				<path style="fill:#FFFFFF;" d="M291.408,47.086l3.936-6.266c-1.337-0.317-2.733-0.486-4.168-0.486
					c-5.165,0-8.837,2.185-11.171,5.68v-5.68h-6.694V76.15h6.694v-5.68V58.134c0.056-6.116,5.035-11.057,11.171-11.057
					C291.253,47.077,291.33,47.083,291.408,47.086z"/>
			</g>
		</g>
	</g>
	<g>
		<g>
			<path style="fill:#FFFFFF;" d="M73.278,80.594c8.845-6.377,14.604-16.768,14.604-28.505c0-11.644-5.668-21.963-14.395-28.352
				c-1.948-1.501-4.094-2.756-6.394-3.718c-4.376-1.959-9.226-3.049-14.33-3.049c-0.13,0-0.259,0.003-0.389,0.005
				c-0.129-0.002-0.258-0.005-0.388-0.005c-2.394,0-4.719,0.297-6.941,0.853C29.362,21.34,17.644,35.345,17.644,52.089
				c0,11.737,5.759,22.127,14.604,28.505c5.747,4.144,12.797,6.593,20.419,6.613c0.032,0,0.064-0.001,0.097-0.001
				c0.032,0,0.064,0.001,0.096,0.001c8.893,0.039,16.53,5.382,19.921,13.028l9.625-9.973C80.002,86.489,76.899,83.205,73.278,80.594
				z M44.36,72.308c-1.785-0.808-3.47-1.796-5.036-2.938c-5.145-4.006-8.455-10.257-8.455-17.282
				c0-12.091,9.801-21.893,21.893-21.893c12.091,0,21.892,9.802,21.892,21.893c0,10.216-6.998,18.796-16.462,21.211
				c-1.877,0.417-3.822,0.648-5.818,0.675C49.539,73.926,46.835,73.338,44.36,72.308z M52.763,73.982
				c-0.032,0-0.064-0.001-0.097-0.001c0.032,0,0.064-0.001,0.097-0.001c0.032,0,0.064,0.001,0.096,0.001
				C52.827,73.98,52.795,73.982,52.763,73.982z"/>
		</g>
	</g>
</g>
</svg>
